<?xml version="1.0" encoding="UTF-8" standalone="no"?>
<svg
   xmlns:dc="http://purl.org/dc/elements/1.1/"
   xmlns:cc="http://creativecommons.org/ns#"
   xmlns:rdf="http://www.w3.org/1999/02/22-rdf-syntax-ns#"
   xmlns:svg="http://www.w3.org/2000/svg"
   xmlns="http://www.w3.org/2000/svg"
   version="1.1"
   id="svg3503"
   viewBox="0 0 511.99998 511.99998"
   height="144.49777mm"
   width="144.49777mm">
  <defs
     id="defs3505" />
  <metadata
     id="metadata3508">
    <rdf:RDF>
      <cc:Work
         rdf:about="">
        <dc:format>image/svg+xml</dc:format>
        <dc:type
           rdf:resource="http://purl.org/dc/dcmitype/StillImage" />
        <dc:title></dc:title>
      </cc:Work>
    </rdf:RDF>
  </metadata>
  <g
     transform="translate(-12.571429,-270.64792)"
     id="layer1">
    <path
       d="m 268.57143,782.64792 c 141.405,0 256,-114.596 256,-256 0,-141.376 -114.596,-256 -256,-256 -141.375,0 -256.000001,114.624 -256.000001,256 0,141.405 114.624001,256 256.000001,256 z m -120.032,-318.938 c 11.658,-13.283 31.907,-14.596 45.158,-2.905 l 74.967,65.811 74.595,-66.313 c 13.188,-11.75 33.438,-10.56 45.188,2.627 11.783,13.248 10.593,33.498 -2.624,45.248 l -95.718,85.127 c -1.095,0.998 -2.471,1.312 -3.626,2.125 -1.907,1.279 -3.718,2.531 -5.782,3.376 -1.812,0.685 -3.594,1.03 -5.438,1.437 -2.188,0.438 -4.281,0.874 -6.498,0.842 -1.876,0 -3.69,-0.375 -5.565,-0.717 -2.125,-0.375 -4.218,-0.752 -6.281,-1.594 -1.876,-0.752 -3.469,-1.907 -5.217,-3.002 -1.314,-0.841 -2.812,-1.248 -4,-2.31 l -96.252,-84.532 c -13.281,-11.69 -14.594,-31.908 -2.907,-45.22 z"
       id="path70"
       style="fill:#999999" />
  </g>
</svg>
