<?xml version="1.0" encoding="UTF-8" standalone="no"?>
<!-- Created with Inkscape (http://www.inkscape.org/) -->

<svg
   xmlns:dc="http://purl.org/dc/elements/1.1/"
   xmlns:cc="http://creativecommons.org/ns#"
   xmlns:rdf="http://www.w3.org/1999/02/22-rdf-syntax-ns#"
   xmlns:svg="http://www.w3.org/2000/svg"
   xmlns="http://www.w3.org/2000/svg"
   version="1.1"
   width="28.222221mm"
   height="28.222223mm"
   viewBox="0 0 99.999994 100"
   id="svg2">
  <defs
     id="defs4" />
  <metadata
     id="metadata7">
    <rdf:RDF>
      <cc:Work
         rdf:about="">
        <dc:format>image/svg+xml</dc:format>
        <dc:type
           rdf:resource="http://purl.org/dc/dcmitype/StillImage" />
        <dc:title></dc:title>
      </cc:Work>
    </rdf:RDF>
  </metadata>
  <g
     transform="translate(-331.21399,-539.71606)"
     id="layer1">
    <g
       transform="matrix(5.4645672,0,0,5.4645672,371.19654,699.22479)"
       id="Icons new Arranged Names"
       style="fill:none;stroke:none">
      <g
         id="93 Compass East"
         style="fill:#000000">
        <path
           d="m 1.8331639,-10.889925 c -5.053326,0 -9.1498556,-4.09653 -9.1498556,-9.149855 0,-5.053326 4.0965296,-9.149856 9.1498556,-9.149856 5.0533259,0 9.1498551,4.09653 9.1498551,9.149856 0,5.053325 -4.0965292,9.149855 -9.1498551,9.149855 z m 7.1891719,-9.149855 c 0,0 -5.7448025,2.614244 -7.1891719,2.614244 -1.44436945,0 -2.61424444,-1.170438 -2.61424444,-2.614244 0,-1.443809 1.16987499,-2.614245 2.61424444,-2.614245 1.4443694,0 7.1891719,2.614245 7.1891719,2.614245 z m -7.1891719,7.842733 c 4.3314218,0 7.8427332,-3.511312 7.8427332,-7.842733 0,-4.331422 -3.5113114,-7.842734 -7.8427332,-7.842734 -4.3314222,0 -7.8427333,3.511312 -7.8427333,7.842734 0,4.331421 3.5113111,7.842733 7.8427333,7.842733 z m 0,-6.535612 c 0.721904,0 1.3071222,-0.585217 1.3071222,-1.307121 0,-0.721905 -0.5852182,-1.307123 -1.3071222,-1.307123 -0.7219041,0 -1.30712229,0.585218 -1.30712229,1.307123 0,0.721904 0.58521819,1.307121 1.30712229,1.307121 z m 0,0"
           id="Oval 278 copy 2"
           style="fill:#cccccc" />
      </g>
    </g>
  </g>
</svg>
