<?xml version="1.0" encoding="UTF-8" standalone="no"?>
<!-- Generator: Adobe Illustrator 16.0.0, SVG Export Plug-In . SVG Version: 6.00 Build 0)  -->

<svg
   xmlns:dc="http://purl.org/dc/elements/1.1/"
   xmlns:cc="http://creativecommons.org/ns#"
   xmlns:rdf="http://www.w3.org/1999/02/22-rdf-syntax-ns#"
   xmlns:svg="http://www.w3.org/2000/svg"
   xmlns="http://www.w3.org/2000/svg"
   xmlns:sodipodi="http://sodipodi.sourceforge.net/DTD/sodipodi-0.dtd"
   xmlns:inkscape="http://www.inkscape.org/namespaces/inkscape"
   version="1.1"
   id="Layer_1"
   x="0px"
   y="0px"
   width="411.99899"
   height="412"
   viewBox="0 0 411.99899 412"
   enable-background="new 0 0 512 512"
   xml:space="preserve"
   inkscape:version="0.48.4 r9939"
   sodipodi:docname="facebook-3.svg"><metadata
     id="metadata3032"><rdf:RDF><cc:Work
         rdf:about=""><dc:format>image/svg+xml</dc:format><dc:type
           rdf:resource="http://purl.org/dc/dcmitype/StillImage" /><dc:title></dc:title></cc:Work></rdf:RDF></metadata><defs
     id="defs3030" /><sodipodi:namedview
     pagecolor="#ffffff"
     bordercolor="#666666"
     borderopacity="1"
     objecttolerance="10"
     gridtolerance="10"
     guidetolerance="10"
     inkscape:pageopacity="0"
     inkscape:pageshadow="2"
     inkscape:window-width="1920"
     inkscape:window-height="1021"
     id="namedview3028"
     showgrid="false"
     fit-margin-top="0"
     fit-margin-left="0"
     fit-margin-right="0"
     fit-margin-bottom="0"
     inkscape:zoom="1.3037281"
     inkscape:cx="47.936582"
     inkscape:cy="94.398571"
     inkscape:window-x="0"
     inkscape:window-y="27"
     inkscape:window-maximized="1"
     inkscape:current-layer="Layer_1" /><path
     d="M 348.64,0 H 68.48 C 32.072,0 0,26.452 0,62.86 V 343.02 C 0,379.428 32.072,412 68.48,412 h 173.466 c -0.325,-54 0.077,-114.134 -0.185,-166.387 -11.064,-0.112 -22.138,-0.684 -33.202,-0.854 0.041,-18.467 0.017,-37.317 0.024,-55.781 11.057,-0.137 22.121,-0.163 33.178,-0.268 0.338,-17.957 -0.338,-36.025 0.354,-53.966 1.103,-14.205 6.519,-28.563 17.14,-38.377 12.859,-12.239 31.142,-16.397 48.387,-16.912 18.233,-0.163 36.468,-0.076 54.71,-0.068 0.072,19.24 0.072,38.482 -0.008,57.722 -11.789,-0.02 -23.585,0.023 -35.374,-0.025 -7.468,-0.467 -15.145,5.198 -16.504,12.609 -0.177,12.875 -0.064,25.757 -0.057,38.628 17.285,0.073 34.577,-0.02 51.862,0.044 -1.264,18.629 -3.581,37.168 -6.285,55.637 -15.272,0.137 -30.554,1.514 -45.818,1.602 -0.129,52.236 0.04,112.395 -0.093,166.395 h 38.564 c 36.408,0 63.36,-32.572 63.36,-68.98 V 62.86 C 412,26.452 385.048,0 348.64,0 z"
     id="path3026"
     style="fill:#999999"
     inkscape:connector-curvature="0" /></svg>