<?xml version="1.0" encoding="UTF-8" standalone="no"?>
<!-- Created with Inkscape (http://www.inkscape.org/) -->

<svg
   xmlns:dc="http://purl.org/dc/elements/1.1/"
   xmlns:cc="http://creativecommons.org/ns#"
   xmlns:rdf="http://www.w3.org/1999/02/22-rdf-syntax-ns#"
   xmlns:svg="http://www.w3.org/2000/svg"
   xmlns="http://www.w3.org/2000/svg"
   version="1.1"
   width="298.75909"
   height="299.21555"
   id="svg3036">
  <metadata
     id="metadata3042">
    <rdf:RDF>
      <cc:Work
         rdf:about="">
        <dc:format>image/svg+xml</dc:format>
        <dc:type
           rdf:resource="http://purl.org/dc/dcmitype/StillImage" />
        <dc:title></dc:title>
      </cc:Work>
    </rdf:RDF>
  </metadata>
  <defs
     id="defs3040" />
  <path
     d="M 131.37954,298.55518 C 66.01222,289.55675 16.05594,243.13675 2.24561,178.5623 0.37744,169.82711 0,164.95288 0,149.5623 c 0,-15.39058 0.37744,-20.26481 2.24561,-29 C 15.22272,59.883837 59.70109,15.405465 120.37954,2.428354 c 15.13935,-3.23780535 42.86065,-3.23780535 58,0 60.67846,12.977111 105.15683,57.455483 118.13394,118.133946 1.86817,8.73519 2.2456,13.60942 2.2456,29 0,15.39058 -0.37743,20.26481 -2.2456,29 -12.92953,60.45596 -57.78366,105.44266 -117.63394,117.9816 -11.39992,2.38834 -36.91323,3.46864 -47.5,2.01128 z m 44.03925,-13.97568 c 48.44209,-9.27397 88.73243,-44.56862 104.50162,-91.54421 9.15553,-27.27385 9.15553,-59.67213 0,-86.94598 -13.67244,-40.729503 -46.33839,-73.395446 -87.06788,-87.067886 -27.27385,-9.1555289 -59.67213,-9.1555289 -86.94598,0 -40.72949,13.67244 -73.39544,46.338383 -87.06788,87.067886 -9.15552,27.27385 -9.15552,59.67213 0,86.94598 6.89714,20.54622 17.65659,37.77006 33.47721,53.59068 32.79906,32.79906 77.70664,46.6444 123.10291,37.95353 z"
     id="path3046"
     style="fill:#808080" />
</svg>
