<?xml version="1.0" encoding="UTF-8" standalone="no"?>
<svg
   xmlns:dc="http://purl.org/dc/elements/1.1/"
   xmlns:cc="http://creativecommons.org/ns#"
   xmlns:rdf="http://www.w3.org/1999/02/22-rdf-syntax-ns#"
   xmlns:svg="http://www.w3.org/2000/svg"
   xmlns="http://www.w3.org/2000/svg"
   xml:space="preserve"
   enable-background="new 0 0 500 500"
   viewBox="0 0 346 346"
   height="346"
   width="346"
   y="0px"
   x="0px"
   id="Layer_1"
   version="1.1"><metadata
     id="metadata9"><rdf:RDF><cc:Work
         rdf:about=""><dc:format>image/svg+xml</dc:format><dc:type
           rdf:resource="http://purl.org/dc/dcmitype/StillImage" /><dc:title></dc:title></cc:Work></rdf:RDF></metadata><defs
     id="defs7" /><path
     style="fill:#49a018"
     id="path3"
     d="m 173,346 c -15.916,0 -31.255,-2.076 -46.018,-6.228 C 112.219,335.619 98.437,329.796 85.635,322.299 72.833,314.802 61.184,305.806 50.689,295.311 40.194,284.817 31.198,273.167 23.701,260.365 16.204,247.562 10.38,233.781 6.228,219.018 2.076,204.255 0,188.916 0,173 0,157.084 2.076,141.745 6.228,126.982 10.38,112.219 16.204,98.437 23.701,85.635 31.198,72.833 40.194,61.184 50.689,50.689 61.184,40.194 72.833,31.198 85.635,23.701 98.437,16.204 112.219,10.38 126.982,6.228 141.745,2.076 157.084,0 173,0 c 23.759,0 46.191,4.556 67.297,13.667 21.106,9.111 39.444,21.452 55.014,37.022 15.57,15.57 27.911,33.908 37.022,55.014 C 341.444,126.809 346,149.241 346,173 c 0,15.916 -2.076,31.255 -6.228,46.018 -4.153,14.762 -9.976,28.544 -17.473,41.347 -7.497,12.802 -16.493,24.451 -26.988,34.946 -10.494,10.495 -22.144,19.492 -34.946,26.988 -12.803,7.497 -26.584,13.321 -41.348,17.473 C 204.255,343.924 188.916,346 173,346 Z M 279.222,124.214 251.542,96.188 c -0.923,-0.923 -2.191,-1.384 -3.805,-1.384 -1.615,0 -2.884,0.461 -3.806,1.384 L 135.286,204.832 102.07,171.27 c -2.537,-2.076 -5.075,-2.076 -7.612,0 l -27.68,28.026 c -0.923,0.923 -1.384,2.191 -1.384,3.806 0,1.384 0.461,2.537 1.384,3.46 l 64.702,64.702 c 1.153,1.153 2.422,1.731 3.806,1.731 l 0.346,0 c 1.615,0 2.768,-0.577 3.46,-1.731 L 279.222,131.48 c 1.153,-1.153 1.731,-2.422 1.731,-3.806 -10e-4,-1.384 -0.578,-2.537 -1.731,-3.46 z" /></svg>