<?xml version="1.0" encoding="UTF-8" standalone="no"?>
<!-- Created with Inkscape (http://www.inkscape.org/) -->

<svg
   xmlns:dc="http://purl.org/dc/elements/1.1/"
   xmlns:cc="http://creativecommons.org/ns#"
   xmlns:rdf="http://www.w3.org/1999/02/22-rdf-syntax-ns#"
   xmlns:svg="http://www.w3.org/2000/svg"
   xmlns="http://www.w3.org/2000/svg"
   version="1.2"
   width="506.707"
   height="506.70599"
   viewBox="0 0 506.707 506.70599"
   id="Layer_1"
   xml:space="preserve"><metadata
     id="metadata17"><rdf:RDF><cc:Work
         rdf:about=""><dc:format>image/svg+xml</dc:format><dc:type
           rdf:resource="http://purl.org/dc/dcmitype/StillImage" /><dc:title></dc:title></cc:Work></rdf:RDF></metadata><defs
     id="defs15" /><path
     d="m 217.16,425.271 c -5.007,0 -9.048,4.041 -9.048,9.049 v 54.29 c 0,5.007 4.041,9.048 9.048,9.048 5.007,0 9.048,-4.041 9.048,-9.048 v -54.29 c 0,-5.008 -4.041,-9.049 -9.048,-9.049"
     id="path3"
     style="fill:#cccccc" /><path
     d="m 289.547,425.271 c -5.008,0 -9.049,4.041 -9.049,9.049 v 54.29 c 0,5.007 4.041,9.048 9.049,9.048 5.007,0 9.048,-4.041 9.048,-9.048 v -54.29 c 0,-5.008 -4.041,-9.049 -9.048,-9.049"
     id="path5"
     style="fill:#cccccc" /><path
     d="M 452.416,126.677 V 108.58 C 452.416,48.859 402.839,0 342.281,0 H 253.353 164.425 C 103.862,0 54.29,48.858 54.29,108.58 v 18.097 h 199.062 199.064 z"
     id="path7"
     style="fill:#cccccc" /><path
     d="m 470.513,271.45 v -90.483 c 0,0 0,-18.097 -18.097,-18.097 V 144.773 H 253.353 54.29 v 18.097 c -18.097,0 -18.097,18.097 -18.097,18.097 V 271.45 C 13.236,281.606 0,300.562 0,325.74 c 0,33.637 53.913,80.764 53.913,90.483 0,54.29 37.524,90.482 92.262,90.482 20.011,0 38.373,-6.338 53.142,-16.836 -0.036,-0.447 -0.253,-0.812 -0.253,-1.26 v -54.29 c 0,-9.991 8.129,-18.097 18.097,-18.097 8.07,0 14.68,5.407 17.001,12.735 h 1.096 v -3.688 c 0,-9.99 8.129,-18.097 18.096,-18.097 9.967,0 18.097,8.106 18.097,18.097 v 3.688 h 1.096 c 2.32,-7.328 8.93,-12.735 17.001,-12.735 9.967,0 18.097,8.105 18.097,18.097 v 54.29 c 0,0.447 -0.213,0.812 -0.26,1.26 14.774,10.498 33.13,16.836 53.147,16.836 54.737,0 92.262,-36.192 92.262,-90.482 0,-9.72 53.913,-56.847 53.913,-90.483 -10e-4,-25.178 -13.232,-44.134 -36.194,-54.29 M 135.725,470.513 c -14.986,0 -27.145,-12.159 -27.145,-27.146 0,-14.987 12.159,-27.145 27.145,-27.145 14.986,0 27.145,12.158 27.145,27.145 0,14.987 -12.159,27.146 -27.145,27.146 M 162.87,343.836 h -31.027 c -3.004,0 -5.167,-1.626 -5.167,-3.617 0,-2.003 2.162,-4.064 5.167,-4.665 l 31.027,-9.814 v 18.096 z m 54.29,-22.809 c -10.568,4.383 -20.789,9.814 -30.827,14.751 -1.614,0.801 -3.535,1.402 -5.367,2.038 v -25.083 c 12.848,-11.052 24.323,-18.627 36.193,-23.599 v 31.893 z m -90.483,-67.674 c -36.193,0 -36.193,-72.386 -36.193,-72.386 h 144.773 c 0,0 -72.387,72.386 -108.58,72.386 m 144.773,61.642 c -5.903,-1.413 -11.911,-2.262 -18.097,-2.262 -6.191,0 -12.2,0.849 -18.096,2.262 v -31.351 c 5.731,-1.131 11.705,-1.838 18.096,-2.109 6.398,0.271 12.371,0.979 18.097,2.109 v 31.351 z m 54.29,22.821 c -1.839,-0.636 -3.747,-1.237 -5.373,-2.038 -10.038,-4.937 -20.253,-10.368 -30.82,-14.751 v -31.893 c 11.876,4.972 23.339,12.547 36.193,23.599 v 25.083 z m 45.241,132.697 c -14.986,0 -27.146,-12.159 -27.146,-27.146 0,-14.987 12.159,-27.145 27.146,-27.145 14.987,0 27.145,12.158 27.145,27.145 0,14.987 -12.158,27.146 -27.145,27.146 M 343.836,343.836 v -18.097 l 31.033,9.814 c 3.005,0.601 5.16,2.662 5.16,4.665 0,1.991 -2.155,3.617 -5.16,3.617 h -31.033 z m 36.193,-90.483 c -36.193,0 -108.579,-72.386 -108.579,-72.386 h 144.772 c 0.001,0 0.001,72.386 -36.193,72.386"
     id="path9"
     style="fill:#cccccc" /><path
     d="m 253.353,416.223 c -5.007,0 -9.048,4.041 -9.048,9.048 v 72.387 c 0,5.007 4.042,9.048 9.048,9.048 5.007,0 9.048,-4.041 9.048,-9.048 v -72.387 c 0,-5.007 -4.041,-9.048 -9.048,-9.048"
     id="path11"
     style="fill:#cccccc" /></svg>